<svg viewBox="0 0 368.51 300.5" xmlns="http://www.w3.org/2000/svg"><path d="M184.254 106.379 0 0v212.759l59.234-34.2v-75.96l65.78 37.98zm0 0L368.504 0v212.759l-59.24-34.2v-75.96l-65.77 37.98z" fill="#009cde"/><path d="M0 242.629h14.048l15.572 24.473 15.572-24.473h14.042v57.876H46.292v-37.25l-16.672 24.72h-.339l-16.5-24.474v37H0zm91.524 0h11.984l25.32 57.876h-13.592l-5.221-12.116H84.663l-5.21 12.116H66.204zm13.852 34.516-8.031-19.22-8.039 19.22zm30.518-34.516h27.414c7.625 0 13.537 2.067 17.477 5.87 3.341 3.224 5.139 8 5.139 13.455v.164c0 9.345-5.224 15.441-12.849 18.169l14.65 20.218h-15.42l-12.852-18.069h-10.366v18.069h-13.193zm26.559 28.563c6.423 0 10.108-3.532 10.108-8.413v-.164c0-5.457-3.94-8.5-10.366-8.5h-13.108v17.073zm35.021-28.563h44.559v11.326h-31.646v11.74h27.853v11.33h-27.853v12.158h32.071v11.326h-44.984zm56.43 0h13v46.3h29.006v11.576h-42.006zm51.23 0h13v46.3h29.01v11.576h-42.01zm50.37 0h13v57.876h-13z" fill="#002855"/></svg>